<!-- icon-cloud.svg -->
<svg width="64" height="64" viewBox="0 0 24 24" fill="none" xmlns="http://www.w3.org/2000/svg">
  <path d="M5 16H19C20.1046 16 21 15.1046 21 14C21 12.8954 20.1046 12 19 12H18C17.4477 12 17 11.5523 17 11C17 8.79086 15.2091 7 13 7C12.2546 7 11.5626 7.22245 10.9796 7.60636C10.6328 6.0797 9.29052 5 7.75 5C6.23122 5 4.94358 6.04557 4.55319 7.50129C3.05102 7.95801 2 9.34611 2 11C2 12.933 3.567 14.5 5.5 14.5H6" stroke="#FEC601" stroke-width="2" stroke-linecap="round" stroke-linejoin="round"/>
</svg>
